<?xml version="1.0" encoding="UTF-8"?>
<svg width="33px" height="32px" viewBox="0 0 33 32" version="1.1" xmlns="http://www.w3.org/2000/svg" xmlns:xlink="http://www.w3.org/1999/xlink">
    <!-- Generator: Sketch 60 (88103) - https://sketch.com -->
    <title>Internet_Explorer_10+11_logo</title>
    <desc>Created with Sketch.</desc>
    <g id="Design" stroke="none" stroke-width="1" fill="none" fill-rule="evenodd">
        <g id="IE-support-message" transform="translate(-178.000000, -124.000000)" fill="#1EBBEE" fill-rule="nonzero">
            <g id="Internet_Explorer_10+11_logo" transform="translate(178.000000, 124.000000)">
                <path d="M32.196,16.6995 C32.196,14.1543 31.53795,11.76315 30.384,9.68535 C35.30265,-1.4466 25.1136,0.1839 24.5463,0.2949 C22.38765,0.7173 20.39055,1.39545 18.5484,2.2551 C18.27675,2.2398 18.00345,2.2314 17.72805,2.2314 C10.8531,2.2314 5.09835,7.0266 3.6255,13.45485 C7.24905,9.3897 9.78495,7.74945 11.30355,7.09305 C11.06115,7.30965 10.82385,7.52865 10.59045,7.7493 C10.51275,7.82265 10.4379,7.89705 10.36125,7.97085 C10.20735,8.1189 10.05375,8.2671 9.90375,8.41665 C9.8145,8.5056 9.72765,8.5953 9.63975,8.68485 C9.5067,8.8203 9.37395,8.9556 9.24405,9.0918 C9.1518,9.18855 9.0618,9.2856 8.9712,9.3825 C8.84985,9.5124 8.72925,9.64245 8.6109,9.77295 C8.51895,9.87435 8.4285,9.97575 8.3382,10.07745 C8.226,10.20375 8.11485,10.33005 8.0052,10.45665 C7.9143,10.56165 7.82415,10.66665 7.73505,10.7718 C7.6311,10.8945 7.5285,11.0172 7.42695,11.1399 C7.3371,11.2485 7.24755,11.35695 7.15965,11.4654 C7.06455,11.5827 6.97155,11.69985 6.8787,11.81685 C6.7887,11.93025 6.6987,12.0435 6.6108,12.15675 C6.5271,12.2646 6.4458,12.372 6.3639,12.47955 C6.2715,12.60105 6.17835,12.72255 6.08835,12.84345 C6.024,12.93 5.9622,13.01565 5.89905,13.1019 C5.3274,13.8819 4.8051,14.6469 4.33335,15.38175 C4.33215,15.38355 4.33095,15.38535 4.3299,15.38715 C4.2057,15.58065 4.08585,15.7713 3.9684,15.9603 C3.9621,15.9705 3.9555,15.98085 3.9492,15.9912 C3.8316,16.18095 3.71805,16.3674 3.60735,16.5519 C3.60345,16.55835 3.5994,16.56495 3.5955,16.5714 C3.2979,17.06805 3.0219,17.54685 2.77335,17.9973 C1.4703,20.35875 0.83595,22.0086 0.8085,22.10655 C-3.3063,36.81735 9.5361,30.6051 11.32815,29.6778 C13.25775,30.63105 15.43005,31.1676 17.72805,31.1676 C24.01905,31.1676 29.3715,27.15195 31.3638,21.5442 L23.7618,21.5442 C22.63695,23.44455 20.4714,24.7317 17.9835,24.7317 C14.33835,24.7317 11.3835,21.9699 11.3835,18.56295 L32.0775,18.56295 C32.15595,17.95275 32.1966,17.33085 32.1966,16.6995 L32.196,16.6995 Z M29.4933,2.4621 C30.7392,3.303 31.7385,4.6236 30.02235,9.07095 C28.3764,6.4239 25.90005,4.34745 22.95675,3.2061 C24.29565,2.55945 27.6114,1.19175 29.4933,2.4621 L29.4933,2.4621 Z M3.0153,29.6481 C2.00055,28.6074 1.82115,26.0727 4.06035,21.4539 C5.19045,24.70305 7.44555,27.42555 10.36035,29.1534 C8.91075,29.95125 5.06235,31.74765 3.0153,29.6481 Z M11.35095,14.6061 C11.4666,11.29485 14.3484,8.6436 17.88915,8.6436 C21.42975,8.6436 24.3117,11.29485 24.42735,14.6061 L11.35095,14.6061 L11.35095,14.6061 Z" id="svg"></path>
            </g>
        </g>
    </g>
</svg>
