<?xml version="1.0" encoding="UTF-8"?>
<svg width="491px" height="491px" viewBox="0 0 491 491" version="1.1" xmlns="http://www.w3.org/2000/svg" xmlns:xlink="http://www.w3.org/1999/xlink">
    <!-- Generator: Sketch 46.2 (44496) - http://www.bohemiancoding.com/sketch -->
    <title>Untitled 2</title>
    <desc>Created with Sketch.</desc>
    <defs></defs>
    <g id="Page-1" stroke="none" stroke-width="1" fill="none" fill-rule="evenodd">
        <g id="play-circled">
            <g id="Group" transform="translate(197.000000, 152.000000)" stroke="#FFFFFF" stroke-width="20" stroke-linecap="round">
                <path d="M1,0 L1,186" id="Line"></path>
                <path d="M96,0 L96,186" id="Line-Copy"></path>
            </g>
            <path d="M245,0 C109.9,0 0,109.9 0,245 C0,380.1 109.9,490 245,490 C380.1,490 490,380.1 490,245 C490,109.9 380.1,0 245,0 Z M245,469.1 C121.4,469.1 20.9,368.6 20.9,245 C20.9,121.4 121.4,20.9 245,20.9 C368.6,20.9 469.1,121.4 469.1,245 C469.1,368.6 368.6,469.1 245,469.1 Z" id="Shape" fill="#FFFFFF" fill-rule="nonzero"></path>
        </g>
    </g>
</svg>